<svg width="33" height="30" viewBox="0 0 33 30" fill="none" xmlns="http://www.w3.org/2000/svg">
<path d="M23.925 0C21.054 0 18.2985 1.32425 16.5 3.41689C14.7015 1.32425 11.946 0 9.075 0C3.993 0 0 3.9564 0 8.99183C0 15.1717 5.61 20.2071 14.1075 27.8583L16.5 30L18.8925 27.842C27.39 20.2071 33 15.1717 33 8.99183C33 3.9564 29.007 0 23.925 0ZM16.665 25.4223L16.5 25.5858L16.335 25.4223C8.481 18.376 3.3 13.7166 3.3 8.99183C3.3 5.72207 5.775 3.26975 9.075 3.26975C11.616 3.26975 14.091 4.88828 14.9655 7.12807H18.051C18.909 4.88828 21.384 3.26975 23.925 3.26975C27.225 3.26975 29.7 5.72207 29.7 8.99183C29.7 13.7166 24.519 18.376 16.665 25.4223Z" fill="#EA5455"/>
</svg>
